<svg xmlns="http://www.w3.org/2000/svg" viewBox="0 0 841.9 595.3" role="img" aria-label="React logo">
  <g fill="none" fill-rule="evenodd" stroke="#61DAFB" stroke-width="24">
    <ellipse cx="420.9" cy="296.5" rx="45.7" ry="45.7" fill="#61DAFB" stroke="none" />
    <path d="M520.5 78.1c57.2 33 93 86.8 93 145.9 0 104.8-112.1 189.7-250.4 189.7S112.7 328.8 112.7 224c0-59.1 35.8-112.9 93-145.9" />
    <path d="M201.5 459.2c57.2-33 127.3-34.9 178.5-5.3 90.8 52.4 118.8 193.8 62.5 315.8-56.3 122-175.6 178.5-266.4 126.1-51.2-29.6-82.6-84-90.3-150.5" transform="rotate(-60 309.3 663.7)" />
    <path d="M201.5 133.8c57.2 33 127.3 34.9 178.5 5.3 90.8-52.4 118.8-193.8 62.5-315.8-56.3-122-175.6-178.5-266.4-126.1-51.2 29.6-82.6 84-90.3 150.5" transform="rotate(60 309.3 -70.7)" />
  </g>
</svg>
